<?xml version="1.0" encoding="UTF-8" standalone="no"?><!DOCTYPE svg PUBLIC "-//W3C//DTD SVG 1.1//EN" "http://www.w3.org/Graphics/SVG/1.1/DTD/svg11.dtd"><!-- Generated by graphviz version 2.40.1 (20161225.0304)
 --><!-- Title: G Pages: 1 --><svg xmlns="http://www.w3.org/2000/svg" xmlns:xlink="http://www.w3.org/1999/xlink" width="1672pt" height="404pt" viewBox="0.00 0.00 1672.32 404.00">
<g id="graph0" class="graph" transform="scale(1 1) rotate(0) translate(4 400)">
<title>G</title>
<polygon fill="#ffffff" stroke="transparent" points="-4,4 -4,-400 1668.3214,-400 1668.3214,4 -4,4"/>
<!-- ManageableVault -->
<g id="node1" class="node">
<title>ManageableVault</title>
<ellipse fill="none" stroke="#000000" cx="1250.5783" cy="-306" rx="79.8546" ry="18"/>
<text text-anchor="middle" x="1250.5783" y="-301.8" font-family="Times,serif" font-size="14.00" fill="#000000">ManageableVault</text>
</g>
<!-- Greenlistable -->
<g id="node2" class="node">
<title>Greenlistable</title>
<ellipse fill="none" stroke="#000000" cx="1268.5783" cy="-234" rx="62.5334" ry="18"/>
<text text-anchor="middle" x="1268.5783" y="-229.8" font-family="Times,serif" font-size="14.00" fill="#000000">Greenlistable</text>
</g>
<!-- ManageableVault&#45;&gt;Greenlistable -->
<g id="edge1" class="edge">
<title>ManageableVault-&gt;Greenlistable</title>
<path fill="none" stroke="#000000" d="M1255.1205,-287.8314C1257.0667,-280.0463 1259.3851,-270.7729 1261.5446,-262.1347"/>
<polygon fill="#000000" stroke="#000000" points="1264.945,-262.9636 1263.975,-252.4133 1258.154,-261.2658 1264.945,-262.9636"/>
</g>
<!-- Pausable -->
<g id="node3" class="node">
<title>Pausable</title>
<ellipse fill="none" stroke="#000000" cx="1142.5783" cy="-234" rx="45.2227" ry="18"/>
<text text-anchor="middle" x="1142.5783" y="-229.8" font-family="Times,serif" font-size="14.00" fill="#000000">Pausable</text>
</g>
<!-- ManageableVault&#45;&gt;Pausable -->
<g id="edge2" class="edge">
<title>ManageableVault-&gt;Pausable</title>
<path fill="none" stroke="#000000" d="M1224.9838,-288.937C1209.8262,-278.8319 1190.4943,-265.944 1174.3647,-255.1909"/>
<polygon fill="#000000" stroke="#000000" points="1176.0421,-252.1028 1165.7802,-249.4679 1172.1592,-257.9271 1176.0421,-252.1028"/>
</g>
<!-- IManageableVault -->
<g id="node4" class="node">
<title>IManageableVault</title>
<ellipse fill="none" stroke="#000000" cx="1431.5783" cy="-234" rx="82.7839" ry="18"/>
<text text-anchor="middle" x="1431.5783" y="-229.8" font-family="Times,serif" font-size="14.00" fill="#000000">IManageableVault</text>
</g>
<!-- ManageableVault&#45;&gt;IManageableVault -->
<g id="edge3" class="edge">
<title>ManageableVault-&gt;IManageableVault</title>
<path fill="none" stroke="#000000" d="M1290.2995,-290.1993C1317.3193,-279.4511 1353.2679,-265.1511 1382.1403,-253.666"/>
<polygon fill="#000000" stroke="#000000" points="1383.6392,-256.8365 1391.6374,-249.8881 1381.0519,-250.3322 1383.6392,-256.8365"/>
</g>
<!-- WithMidasAccessControl -->
<g id="node14" class="node">
<title>WithMidasAccessControl</title>
<ellipse fill="none" stroke="#000000" cx="1256.5783" cy="-162" rx="111.1731" ry="18"/>
<text text-anchor="middle" x="1256.5783" y="-157.8" font-family="Times,serif" font-size="14.00" fill="#000000">WithMidasAccessControl</text>
</g>
<!-- Greenlistable&#45;&gt;WithMidasAccessControl -->
<g id="edge28" class="edge">
<title>Greenlistable-&gt;WithMidasAccessControl</title>
<path fill="none" stroke="#000000" d="M1265.5502,-215.8314C1264.2668,-208.131 1262.7407,-198.9743 1261.3144,-190.4166"/>
<polygon fill="#000000" stroke="#000000" points="1264.7436,-189.7018 1259.6472,-180.4133 1257.8389,-190.8526 1264.7436,-189.7018"/>
</g>
<!-- PausableUpgradeable -->
<g id="node12" class="node">
<title>PausableUpgradeable</title>
<ellipse fill="none" stroke="#000000" cx="579.5783" cy="-162" rx="94.8838" ry="18"/>
<text text-anchor="middle" x="579.5783" y="-157.8" font-family="Times,serif" font-size="14.00" fill="#000000">PausableUpgradeable</text>
</g>
<!-- Pausable&#45;&gt;PausableUpgradeable -->
<g id="edge30" class="edge">
<title>Pausable-&gt;PausableUpgradeable</title>
<path fill="none" stroke="#000000" d="M1109.1544,-221.7751C1102.1054,-219.5613 1094.6576,-217.487 1087.5783,-216 927.1843,-182.3104 883.4385,-198.3791 720.5783,-180 703.4616,-178.0684 685.1966,-175.8519 667.682,-173.6495"/>
<polygon fill="#000000" stroke="#000000" points="667.8312,-170.1406 657.4707,-172.3567 666.9519,-177.0851 667.8312,-170.1406"/>
</g>
<!-- Pausable&#45;&gt;WithMidasAccessControl -->
<g id="edge29" class="edge">
<title>Pausable-&gt;WithMidasAccessControl</title>
<path fill="none" stroke="#000000" d="M1166.7548,-218.7307C1182.2274,-208.9584 1202.595,-196.0947 1220.0231,-185.0875"/>
<polygon fill="#000000" stroke="#000000" points="1222.2415,-187.8261 1228.8274,-179.5269 1218.5035,-181.9076 1222.2415,-187.8261"/>
</g>
<!-- IERC20Upgradeable -->
<g id="node5" class="node">
<title>IERC20Upgradeable</title>
<ellipse fill="none" stroke="#000000" cx="142.5783" cy="-18" rx="92.0374" ry="18"/>
<text text-anchor="middle" x="142.5783" y="-13.8" font-family="Times,serif" font-size="14.00" fill="#000000">IERC20Upgradeable</text>
</g>
<!-- IERC20MetadataUpgradeable -->
<g id="node6" class="node">
<title>IERC20MetadataUpgradeable</title>
<ellipse fill="none" stroke="#000000" cx="142.5783" cy="-90" rx="127.8908" ry="18"/>
<text text-anchor="middle" x="142.5783" y="-85.8" font-family="Times,serif" font-size="14.00" fill="#000000">IERC20MetadataUpgradeable</text>
</g>
<!-- IERC20MetadataUpgradeable&#45;&gt;IERC20Upgradeable -->
<g id="edge4" class="edge">
<title>IERC20MetadataUpgradeable-&gt;IERC20Upgradeable</title>
<path fill="none" stroke="#000000" d="M142.5783,-71.8314C142.5783,-64.131 142.5783,-54.9743 142.5783,-46.4166"/>
<polygon fill="#000000" stroke="#000000" points="146.0784,-46.4132 142.5783,-36.4133 139.0784,-46.4133 146.0784,-46.4132"/>
</g>
<!-- IMTbill -->
<g id="node7" class="node">
<title>IMTbill</title>
<ellipse fill="none" stroke="#000000" cx="48.5783" cy="-162" rx="41.7288" ry="18"/>
<text text-anchor="middle" x="48.5783" y="-157.8" font-family="Times,serif" font-size="14.00" fill="#000000">IMTbill</text>
</g>
<!-- IMTbill&#45;&gt;IERC20Upgradeable -->
<g id="edge5" class="edge">
<title>IMTbill-&gt;IERC20Upgradeable</title>
<path fill="none" stroke="#000000" d="M30.6998,-145.5981C12.5621,-126.9218 -10.6949,-95.9059 5.5783,-72 14.5416,-58.8326 47.2385,-45.6895 78.4405,-35.6669"/>
<polygon fill="#000000" stroke="#000000" points="79.5498,-38.9872 88.0479,-32.66 77.459,-32.3067 79.5498,-38.9872"/>
</g>
<!-- IDataFeed -->
<g id="node8" class="node">
<title>IDataFeed</title>
<ellipse fill="none" stroke="#000000" cx="1580.5783" cy="-162" rx="51.5011" ry="18"/>
<text text-anchor="middle" x="1580.5783" y="-157.8" font-family="Times,serif" font-size="14.00" fill="#000000">IDataFeed</text>
</g>
<!-- ERC20PausableUpgradeable -->
<g id="node9" class="node">
<title>ERC20PausableUpgradeable</title>
<ellipse fill="none" stroke="#000000" cx="374.5783" cy="-234" rx="123.2572" ry="18"/>
<text text-anchor="middle" x="374.5783" y="-229.8" font-family="Times,serif" font-size="14.00" fill="#000000">ERC20PausableUpgradeable</text>
</g>
<!-- Initializable -->
<g id="node10" class="node">
<title>Initializable</title>
<ellipse fill="none" stroke="#000000" cx="612.5783" cy="-18" rx="57.3147" ry="18"/>
<text text-anchor="middle" x="612.5783" y="-13.8" font-family="Times,serif" font-size="14.00" fill="#000000">Initializable</text>
</g>
<!-- ERC20PausableUpgradeable&#45;&gt;Initializable -->
<g id="edge6" class="edge">
<title>ERC20PausableUpgradeable-&gt;Initializable</title>
<path fill="none" stroke="#000000" d="M370.7106,-215.8163C364.8314,-182.7748 357.7965,-112.5594 393.5783,-72 413.9238,-48.9379 491.745,-33.8473 548.8542,-25.628"/>
<polygon fill="#000000" stroke="#000000" points="549.4819,-29.0743 558.9,-24.2216 548.5113,-22.1419 549.4819,-29.0743"/>
</g>
<!-- ERC20Upgradeable -->
<g id="node11" class="node">
<title>ERC20Upgradeable</title>
<ellipse fill="none" stroke="#000000" cx="257.5783" cy="-162" rx="88.6082" ry="18"/>
<text text-anchor="middle" x="257.5783" y="-157.8" font-family="Times,serif" font-size="14.00" fill="#000000">ERC20Upgradeable</text>
</g>
<!-- ERC20PausableUpgradeable&#45;&gt;ERC20Upgradeable -->
<g id="edge7" class="edge">
<title>ERC20PausableUpgradeable-&gt;ERC20Upgradeable</title>
<path fill="none" stroke="#000000" d="M345.9569,-216.3868C330.4308,-206.8323 311.0665,-194.9158 294.4244,-184.6745"/>
<polygon fill="#000000" stroke="#000000" points="295.8514,-181.4431 285.5005,-179.1829 292.1827,-187.4047 295.8514,-181.4431"/>
</g>
<!-- ERC20PausableUpgradeable&#45;&gt;PausableUpgradeable -->
<g id="edge8" class="edge">
<title>ERC20PausableUpgradeable-&gt;PausableUpgradeable</title>
<path fill="none" stroke="#000000" d="M422.1247,-217.3008C452.7812,-206.5336 492.7493,-192.496 524.7452,-181.2585"/>
<polygon fill="#000000" stroke="#000000" points="526.1247,-184.4836 534.3999,-177.8675 523.805,-177.8791 526.1247,-184.4836"/>
</g>
<!-- ERC20Upgradeable&#45;&gt;IERC20Upgradeable -->
<g id="edge11" class="edge">
<title>ERC20Upgradeable-&gt;IERC20Upgradeable</title>
<path fill="none" stroke="#000000" d="M269.8114,-143.9328C281.2187,-124.6095 294.4224,-93.8066 279.5783,-72 270.615,-58.8326 237.9181,-45.6895 206.7161,-35.6669"/>
<polygon fill="#000000" stroke="#000000" points="207.6976,-32.3067 197.1087,-32.66 205.6068,-38.9872 207.6976,-32.3067"/>
</g>
<!-- ERC20Upgradeable&#45;&gt;IERC20MetadataUpgradeable -->
<g id="edge12" class="edge">
<title>ERC20Upgradeable-&gt;IERC20MetadataUpgradeable</title>
<path fill="none" stroke="#000000" d="M230.0329,-144.7542C214.8951,-135.2766 195.9143,-123.393 179.5073,-113.1207"/>
<polygon fill="#000000" stroke="#000000" points="181.031,-109.9454 170.6978,-107.6053 177.3163,-115.8785 181.031,-109.9454"/>
</g>
<!-- ERC20Upgradeable&#45;&gt;Initializable -->
<g id="edge9" class="edge">
<title>ERC20Upgradeable-&gt;Initializable</title>
<path fill="none" stroke="#000000" d="M272.7495,-144.1122C291.3047,-123.4449 324.7007,-89.9823 360.5783,-72 419.3597,-42.538 493.6941,-29.1066 546.3561,-23.0097"/>
<polygon fill="#000000" stroke="#000000" points="547.0306,-26.4567 556.5885,-21.8855 546.2661,-19.4986 547.0306,-26.4567"/>
</g>
<!-- ContextUpgradeable -->
<g id="node13" class="node">
<title>ContextUpgradeable</title>
<ellipse fill="none" stroke="#000000" cx="493.5783" cy="-90" rx="90.8935" ry="18"/>
<text text-anchor="middle" x="493.5783" y="-85.8" font-family="Times,serif" font-size="14.00" fill="#000000">ContextUpgradeable</text>
</g>
<!-- ERC20Upgradeable&#45;&gt;ContextUpgradeable -->
<g id="edge10" class="edge">
<title>ERC20Upgradeable-&gt;ContextUpgradeable</title>
<path fill="none" stroke="#000000" d="M306.7644,-146.9941C343.8754,-135.6721 394.945,-120.0915 434.3097,-108.0819"/>
<polygon fill="#000000" stroke="#000000" points="435.5065,-111.3762 444.0499,-105.1104 433.4638,-104.6808 435.5065,-111.3762"/>
</g>
<!-- PausableUpgradeable&#45;&gt;Initializable -->
<g id="edge14" class="edge">
<title>PausableUpgradeable-&gt;Initializable</title>
<path fill="none" stroke="#000000" d="M584.5822,-143.5573C587.3509,-133.1463 590.786,-119.8793 593.5783,-108 598.4428,-87.3048 603.386,-63.7956 607.0106,-45.9954"/>
<polygon fill="#000000" stroke="#000000" points="610.4837,-46.4783 609.0331,-35.9832 603.6223,-45.0922 610.4837,-46.4783"/>
</g>
<!-- PausableUpgradeable&#45;&gt;ContextUpgradeable -->
<g id="edge15" class="edge">
<title>PausableUpgradeable-&gt;ContextUpgradeable</title>
<path fill="none" stroke="#000000" d="M558.3199,-144.2022C547.4889,-135.1345 534.1605,-123.9758 522.418,-114.1449"/>
<polygon fill="#000000" stroke="#000000" points="524.5066,-111.3288 514.5922,-107.593 520.013,-116.6961 524.5066,-111.3288"/>
</g>
<!-- ContextUpgradeable&#45;&gt;Initializable -->
<g id="edge13" class="edge">
<title>ContextUpgradeable-&gt;Initializable</title>
<path fill="none" stroke="#000000" d="M522.0818,-72.7542C538.5938,-62.7637 559.5246,-50.0997 577.0966,-39.4679"/>
<polygon fill="#000000" stroke="#000000" points="579.1943,-42.2895 585.9384,-34.1183 575.5707,-36.3004 579.1943,-42.2895"/>
</g>
<!-- MidasInitializable -->
<g id="node15" class="node">
<title>MidasInitializable</title>
<ellipse fill="none" stroke="#000000" cx="1223.5783" cy="-90" rx="81.0917" ry="18"/>
<text text-anchor="middle" x="1223.5783" y="-85.8" font-family="Times,serif" font-size="14.00" fill="#000000">MidasInitializable</text>
</g>
<!-- WithMidasAccessControl&#45;&gt;MidasInitializable -->
<g id="edge16" class="edge">
<title>WithMidasAccessControl-&gt;MidasInitializable</title>
<path fill="none" stroke="#000000" d="M1248.251,-143.8314C1244.5492,-135.7547 1240.1132,-126.0761 1236.0297,-117.1668"/>
<polygon fill="#000000" stroke="#000000" points="1239.1369,-115.5458 1231.7886,-107.9134 1232.7735,-118.4624 1239.1369,-115.5458"/>
</g>
<!-- MidasAccessControlRoles -->
<g id="node16" class="node">
<title>MidasAccessControlRoles</title>
<ellipse fill="none" stroke="#000000" cx="1436.5783" cy="-90" rx="114.0402" ry="18"/>
<text text-anchor="middle" x="1436.5783" y="-85.8" font-family="Times,serif" font-size="14.00" fill="#000000">MidasAccessControlRoles</text>
</g>
<!-- WithMidasAccessControl&#45;&gt;MidasAccessControlRoles -->
<g id="edge17" class="edge">
<title>WithMidasAccessControl-&gt;MidasAccessControlRoles</title>
<path fill="none" stroke="#000000" d="M1298.3263,-145.3008C1324.153,-134.9701 1357.5061,-121.6289 1384.9817,-110.6386"/>
<polygon fill="#000000" stroke="#000000" points="1386.4482,-113.8217 1394.4331,-106.8581 1383.8485,-107.3224 1386.4482,-113.8217"/>
</g>
<!-- MidasInitializable&#45;&gt;Initializable -->
<g id="edge27" class="edge">
<title>MidasInitializable-&gt;Initializable</title>
<path fill="none" stroke="#000000" d="M1165.1398,-77.4825C1154.6613,-75.4752 1143.8189,-73.5512 1133.5783,-72 970.7587,-47.3361 777.5851,-30.5446 678.4762,-22.8296"/>
<polygon fill="#000000" stroke="#000000" points="678.5528,-19.3252 668.313,-22.0447 678.0137,-26.3044 678.5528,-19.3252"/>
</g>
<!-- MidasAccessControl -->
<g id="node17" class="node">
<title>MidasAccessControl</title>
<ellipse fill="none" stroke="#000000" cx="846.5783" cy="-234" rx="92.0509" ry="18"/>
<text text-anchor="middle" x="846.5783" y="-229.8" font-family="Times,serif" font-size="14.00" fill="#000000">MidasAccessControl</text>
</g>
<!-- MidasAccessControl&#45;&gt;MidasInitializable -->
<g id="edge19" class="edge">
<title>MidasAccessControl-&gt;MidasInitializable</title>
<path fill="none" stroke="#000000" d="M888.003,-217.7352C934.3624,-199.5783 1011.7448,-169.4069 1078.5783,-144 1109.5748,-132.2166 1144.3938,-119.241 1172.1415,-108.9629"/>
<polygon fill="#000000" stroke="#000000" points="1173.4799,-112.1996 1181.6434,-105.4462 1171.0502,-105.6348 1173.4799,-112.1996"/>
</g>
<!-- MidasAccessControl&#45;&gt;MidasAccessControlRoles -->
<g id="edge20" class="edge">
<title>MidasAccessControl-&gt;MidasAccessControlRoles</title>
<path fill="none" stroke="#000000" d="M905.9473,-220.2382C946.5104,-210.3231 1001.2738,-195.927 1048.5783,-180 1088.6266,-166.5161 1096.0043,-155.8082 1136.5783,-144 1174.7954,-132.8777 1271.681,-116.1817 1345.0931,-104.3023"/>
<polygon fill="#000000" stroke="#000000" points="1345.9719,-107.7059 1355.2875,-102.6592 1344.8579,-100.7951 1345.9719,-107.7059"/>
</g>
<!-- AccessControlUpgradeable -->
<g id="node18" class="node">
<title>AccessControlUpgradeable</title>
<ellipse fill="none" stroke="#000000" cx="846.5783" cy="-162" rx="117.4354" ry="18"/>
<text text-anchor="middle" x="846.5783" y="-157.8" font-family="Times,serif" font-size="14.00" fill="#000000">AccessControlUpgradeable</text>
</g>
<!-- MidasAccessControl&#45;&gt;AccessControlUpgradeable -->
<g id="edge18" class="edge">
<title>MidasAccessControl-&gt;AccessControlUpgradeable</title>
<path fill="none" stroke="#000000" d="M846.5783,-215.8314C846.5783,-208.131 846.5783,-198.9743 846.5783,-190.4166"/>
<polygon fill="#000000" stroke="#000000" points="850.0784,-190.4132 846.5783,-180.4133 843.0784,-190.4133 850.0784,-190.4132"/>
</g>
<!-- AccessControlUpgradeable&#45;&gt;Initializable -->
<g id="edge21" class="edge">
<title>AccessControlUpgradeable-&gt;Initializable</title>
<path fill="none" stroke="#000000" d="M866.2439,-143.9762C884.9105,-124.6901 907.6366,-93.9187 889.5783,-72 863.4309,-40.2631 752.4843,-26.9292 679.1826,-21.5096"/>
<polygon fill="#000000" stroke="#000000" points="679.3242,-18.0109 669.102,-20.7963 678.83,-24.9935 679.3242,-18.0109"/>
</g>
<!-- AccessControlUpgradeable&#45;&gt;ContextUpgradeable -->
<g id="edge22" class="edge">
<title>AccessControlUpgradeable-&gt;ContextUpgradeable</title>
<path fill="none" stroke="#000000" d="M775.9919,-147.6028C715.3843,-135.2409 628.3365,-117.4861 566.9393,-104.9631"/>
<polygon fill="#000000" stroke="#000000" points="567.4305,-101.4914 556.9328,-102.9222 566.0315,-108.3501 567.4305,-101.4914"/>
</g>
<!-- IAccessControlUpgradeable -->
<g id="node19" class="node">
<title>IAccessControlUpgradeable</title>
<ellipse fill="none" stroke="#000000" cx="760.5783" cy="-90" rx="120.3647" ry="18"/>
<text text-anchor="middle" x="760.5783" y="-85.8" font-family="Times,serif" font-size="14.00" fill="#000000">IAccessControlUpgradeable</text>
</g>
<!-- AccessControlUpgradeable&#45;&gt;IAccessControlUpgradeable -->
<g id="edge23" class="edge">
<title>AccessControlUpgradeable-&gt;IAccessControlUpgradeable</title>
<path fill="none" stroke="#000000" d="M825.3199,-144.2022C814.5697,-135.2021 801.3593,-124.1423 789.6812,-114.3652"/>
<polygon fill="#000000" stroke="#000000" points="791.8046,-111.5783 781.8902,-107.8425 787.311,-116.9456 791.8046,-111.5783"/>
</g>
<!-- ERC165Upgradeable -->
<g id="node20" class="node">
<title>ERC165Upgradeable</title>
<ellipse fill="none" stroke="#000000" cx="1030.5783" cy="-90" rx="93.7649" ry="18"/>
<text text-anchor="middle" x="1030.5783" y="-85.8" font-family="Times,serif" font-size="14.00" fill="#000000">ERC165Upgradeable</text>
</g>
<!-- AccessControlUpgradeable&#45;&gt;ERC165Upgradeable -->
<g id="edge24" class="edge">
<title>AccessControlUpgradeable-&gt;ERC165Upgradeable</title>
<path fill="none" stroke="#000000" d="M889.7181,-145.1192C916.7255,-134.5511 951.6467,-120.8863 979.9614,-109.8066"/>
<polygon fill="#000000" stroke="#000000" points="981.2526,-113.0599 989.2896,-106.1565 978.7017,-106.5412 981.2526,-113.0599"/>
</g>
<!-- ERC165Upgradeable&#45;&gt;Initializable -->
<g id="edge25" class="edge">
<title>ERC165Upgradeable-&gt;Initializable</title>
<path fill="none" stroke="#000000" d="M960.6145,-77.9488C880.0968,-64.0797 749.1932,-41.5318 672.9566,-28.4001"/>
<polygon fill="#000000" stroke="#000000" points="673.4771,-24.9383 663.0281,-26.6899 672.2888,-31.8367 673.4771,-24.9383"/>
</g>
<!-- IERC165Upgradeable -->
<g id="node21" class="node">
<title>IERC165Upgradeable</title>
<ellipse fill="none" stroke="#000000" cx="1030.5783" cy="-18" rx="96.6945" ry="18"/>
<text text-anchor="middle" x="1030.5783" y="-13.8" font-family="Times,serif" font-size="14.00" fill="#000000">IERC165Upgradeable</text>
</g>
<!-- ERC165Upgradeable&#45;&gt;IERC165Upgradeable -->
<g id="edge26" class="edge">
<title>ERC165Upgradeable-&gt;IERC165Upgradeable</title>
<path fill="none" stroke="#000000" d="M1030.5783,-71.8314C1030.5783,-64.131 1030.5783,-54.9743 1030.5783,-46.4166"/>
<polygon fill="#000000" stroke="#000000" points="1034.0784,-46.4132 1030.5783,-36.4133 1027.0784,-46.4133 1034.0784,-46.4132"/>
</g>
<!-- DataFeed -->
<g id="node22" class="node">
<title>DataFeed</title>
<ellipse fill="none" stroke="#000000" cx="1580.5783" cy="-234" rx="48.0703" ry="18"/>
<text text-anchor="middle" x="1580.5783" y="-229.8" font-family="Times,serif" font-size="14.00" fill="#000000">DataFeed</text>
</g>
<!-- DataFeed&#45;&gt;IDataFeed -->
<g id="edge32" class="edge">
<title>DataFeed-&gt;IDataFeed</title>
<path fill="none" stroke="#000000" d="M1580.5783,-215.8314C1580.5783,-208.131 1580.5783,-198.9743 1580.5783,-190.4166"/>
<polygon fill="#000000" stroke="#000000" points="1584.0784,-190.4132 1580.5783,-180.4133 1577.0784,-190.4133 1584.0784,-190.4132"/>
</g>
<!-- DataFeed&#45;&gt;WithMidasAccessControl -->
<g id="edge31" class="edge">
<title>DataFeed-&gt;WithMidasAccessControl</title>
<path fill="none" stroke="#000000" d="M1544.5615,-221.9901C1537.6354,-219.8615 1530.4109,-217.7644 1523.5783,-216 1463.6757,-200.5309 1395.2725,-186.7704 1342.6991,-177.0118"/>
<polygon fill="#000000" stroke="#000000" points="1343.2068,-173.5464 1332.7379,-175.1754 1341.9377,-180.4304 1343.2068,-173.5464"/>
</g>
<!-- DepositVault -->
<g id="node23" class="node">
<title>DepositVault</title>
<ellipse fill="none" stroke="#000000" cx="1549.5783" cy="-378" rx="62.5566" ry="18"/>
<text text-anchor="middle" x="1549.5783" y="-373.8" font-family="Times,serif" font-size="14.00" fill="#000000">DepositVault</text>
</g>
<!-- DepositVault&#45;&gt;ManageableVault -->
<g id="edge33" class="edge">
<title>DepositVault-&gt;ManageableVault</title>
<path fill="none" stroke="#000000" d="M1501.5388,-366.432C1451.0048,-354.2632 1371.1867,-335.0428 1315.1665,-321.553"/>
<polygon fill="#000000" stroke="#000000" points="1315.8863,-318.1264 1305.3447,-319.1879 1314.2474,-324.9318 1315.8863,-318.1264"/>
</g>
<!-- IDepositVault -->
<g id="node24" class="node">
<title>IDepositVault</title>
<ellipse fill="none" stroke="#000000" cx="1598.5783" cy="-306" rx="65.9871" ry="18"/>
<text text-anchor="middle" x="1598.5783" y="-301.8" font-family="Times,serif" font-size="14.00" fill="#000000">IDepositVault</text>
</g>
<!-- DepositVault&#45;&gt;IDepositVault -->
<g id="edge34" class="edge">
<title>DepositVault-&gt;IDepositVault</title>
<path fill="none" stroke="#000000" d="M1561.6907,-360.2022C1567.4035,-351.8079 1574.3357,-341.6218 1580.6417,-332.3558"/>
<polygon fill="#000000" stroke="#000000" points="1583.7027,-334.0789 1586.4354,-323.8425 1577.9157,-330.1405 1583.7027,-334.0789"/>
</g>
<!-- IDepositVault&#45;&gt;IManageableVault -->
<g id="edge35" class="edge">
<title>IDepositVault-&gt;IManageableVault</title>
<path fill="none" stroke="#000000" d="M1563.1619,-290.7307C1538.41,-280.0592 1505.107,-265.701 1478.1985,-254.0997"/>
<polygon fill="#000000" stroke="#000000" points="1479.5405,-250.8669 1468.9719,-250.1218 1476.7691,-257.2949 1479.5405,-250.8669"/>
</g>
<!-- RedemptionVault -->
<g id="node25" class="node">
<title>RedemptionVault</title>
<ellipse fill="none" stroke="#000000" cx="1340.5783" cy="-378" rx="79.8953" ry="18"/>
<text text-anchor="middle" x="1340.5783" y="-373.8" font-family="Times,serif" font-size="14.00" fill="#000000">RedemptionVault</text>
</g>
<!-- RedemptionVault&#45;&gt;ManageableVault -->
<g id="edge36" class="edge">
<title>RedemptionVault-&gt;ManageableVault</title>
<path fill="none" stroke="#000000" d="M1318.7918,-360.5708C1307.2695,-351.353 1292.9511,-339.8983 1280.4119,-329.8669"/>
<polygon fill="#000000" stroke="#000000" points="1282.4712,-327.0322 1272.4761,-323.5182 1278.0984,-332.4983 1282.4712,-327.0322"/>
</g>
<!-- IRedemptionVault -->
<g id="node26" class="node">
<title>IRedemptionVault</title>
<ellipse fill="none" stroke="#000000" cx="1431.5783" cy="-306" rx="82.8245" ry="18"/>
<text text-anchor="middle" x="1431.5783" y="-301.8" font-family="Times,serif" font-size="14.00" fill="#000000">IRedemptionVault</text>
</g>
<!-- RedemptionVault&#45;&gt;IRedemptionVault -->
<g id="edge37" class="edge">
<title>RedemptionVault-&gt;IRedemptionVault</title>
<path fill="none" stroke="#000000" d="M1362.6069,-360.5708C1374.2572,-351.353 1388.7346,-339.8983 1401.4132,-329.8669"/>
<polygon fill="#000000" stroke="#000000" points="1403.7667,-332.4679 1409.4372,-323.5182 1399.4233,-326.9783 1403.7667,-332.4679"/>
</g>
<!-- IRedemptionVault&#45;&gt;IManageableVault -->
<g id="edge38" class="edge">
<title>IRedemptionVault-&gt;IManageableVault</title>
<path fill="none" stroke="#000000" d="M1431.5783,-287.8314C1431.5783,-280.131 1431.5783,-270.9743 1431.5783,-262.4166"/>
<polygon fill="#000000" stroke="#000000" points="1435.0784,-262.4132 1431.5783,-252.4133 1428.0784,-262.4133 1435.0784,-262.4132"/>
</g>
<!-- mTBILL -->
<g id="node27" class="node">
<title>mTBILL</title>
<ellipse fill="none" stroke="#000000" cx="374.5783" cy="-306" rx="45.8041" ry="18"/>
<text text-anchor="middle" x="374.5783" y="-301.8" font-family="Times,serif" font-size="14.00" fill="#000000">mTBILL</text>
</g>
<!-- mTBILL&#45;&gt;IMTbill -->
<g id="edge41" class="edge">
<title>mTBILL-&gt;IMTbill</title>
<path fill="none" stroke="#000000" d="M342.1265,-293.2081C315.2992,-282.5176 276.28,-266.7017 242.5783,-252 187.6762,-228.0501 124.9268,-198.5438 86.0243,-179.9956"/>
<polygon fill="#000000" stroke="#000000" points="87.199,-176.6779 76.667,-175.5261 84.1819,-182.9944 87.199,-176.6779"/>
</g>
<!-- mTBILL&#45;&gt;ERC20PausableUpgradeable -->
<g id="edge39" class="edge">
<title>mTBILL-&gt;ERC20PausableUpgradeable</title>
<path fill="none" stroke="#000000" d="M374.5783,-287.8314C374.5783,-280.131 374.5783,-270.9743 374.5783,-262.4166"/>
<polygon fill="#000000" stroke="#000000" points="378.0784,-262.4132 374.5783,-252.4133 371.0784,-262.4133 378.0784,-262.4132"/>
</g>
<!-- Blacklistable -->
<g id="node28" class="node">
<title>Blacklistable</title>
<ellipse fill="none" stroke="#000000" cx="1017.5783" cy="-234" rx="61.4089" ry="18"/>
<text text-anchor="middle" x="1017.5783" y="-229.8" font-family="Times,serif" font-size="14.00" fill="#000000">Blacklistable</text>
</g>
<!-- mTBILL&#45;&gt;Blacklistable -->
<g id="edge40" class="edge">
<title>mTBILL-&gt;Blacklistable</title>
<path fill="none" stroke="#000000" d="M420.5844,-304.1285C518.2838,-299.6154 753.4224,-285.8934 947.5783,-252 952.6251,-251.119 957.8427,-250.0611 963.0481,-248.9053"/>
<polygon fill="#000000" stroke="#000000" points="964.0533,-252.2648 972.9954,-246.5824 962.4614,-245.4482 964.0533,-252.2648"/>
</g>
<!-- Blacklistable&#45;&gt;WithMidasAccessControl -->
<g id="edge42" class="edge">
<title>Blacklistable-&gt;WithMidasAccessControl</title>
<path fill="none" stroke="#000000" d="M1060.5827,-221.0447C1097.8626,-209.8139 1152.2775,-193.4212 1194.3179,-180.7563"/>
<polygon fill="#000000" stroke="#000000" points="1195.3375,-184.1046 1203.9028,-177.8688 1193.3183,-177.4021 1195.3375,-184.1046"/>
</g>
</g>
</svg>